<svg width="24" height="24" viewBox="0 0 24 24" fill="none" xmlns="http://www.w3.org/2000/svg">
<path d="M8.52632 5.78947H7.89474C7.81098 5.78947 7.73066 5.82274 7.67144 5.88197C7.61222 5.94119 7.57895 6.02151 7.57895 6.10526V18.1053C7.57895 18.189 7.61222 18.2693 7.67144 18.3286C7.73066 18.3878 7.81098 18.4211 7.89474 18.4211H8.52632C8.61007 18.4211 8.69039 18.3878 8.74961 18.3286C8.80884 18.2693 8.8421 18.189 8.8421 18.1053V6.10526C8.8421 6.02151 8.80884 5.94119 8.74961 5.88197C8.69039 5.82274 8.61007 5.78947 8.52632 5.78947ZM4.73684 9.57895H4.10526C4.02151 9.57895 3.94119 9.61222 3.88197 9.67144C3.82274 9.73066 3.78947 9.81098 3.78947 9.89474V14.3158C3.78947 14.3995 3.82274 14.4799 3.88197 14.5391C3.94119 14.5983 4.02151 14.6316 4.10526 14.6316H4.73684C4.82059 14.6316 4.90092 14.5983 4.96014 14.5391C5.01936 14.4799 5.05263 14.3995 5.05263 14.3158V9.89474C5.05263 9.81098 5.01936 9.73066 4.96014 9.67144C4.90092 9.61222 4.82059 9.57895 4.73684 9.57895ZM0.947368 10.8421H0.315789C0.232037 10.8421 0.151715 10.8754 0.0924926 10.9346C0.0332706 10.9938 0 11.0741 0 11.1579V13.0526C0 13.1364 0.0332706 13.2167 0.0924926 13.2759C0.151715 13.3352 0.232037 13.3684 0.315789 13.3684H0.947368C1.03112 13.3684 1.11144 13.3352 1.17067 13.2759C1.22989 13.2167 1.26316 13.1364 1.26316 13.0526V11.1579C1.26316 11.0741 1.22989 10.9938 1.17067 10.9346C1.11144 10.8754 1.03112 10.8421 0.947368 10.8421ZM16.1053 7.05263H15.4737C15.3899 7.05263 15.3096 7.0859 15.2504 7.14512C15.1912 7.20435 15.1579 7.28467 15.1579 7.36842V16.8421C15.1579 16.9259 15.1912 17.0062 15.2504 17.0654C15.3096 17.1246 15.3899 17.1579 15.4737 17.1579H16.1053C16.189 17.1579 16.2693 17.1246 16.3286 17.0654C16.3878 17.0062 16.4211 16.9259 16.4211 16.8421V7.36842C16.4211 7.28467 16.3878 7.20435 16.3286 7.14512C16.2693 7.0859 16.189 7.05263 16.1053 7.05263ZM23.6842 10.8421H23.0526C22.9689 10.8421 22.8886 10.8754 22.8293 10.9346C22.7701 10.9938 22.7368 11.0741 22.7368 11.1579V13.0526C22.7368 13.1364 22.7701 13.2167 22.8293 13.2759C22.8886 13.3352 22.9689 13.3684 23.0526 13.3684H23.6842C23.768 13.3684 23.8483 13.3352 23.9075 13.2759C23.9667 13.2167 24 13.1364 24 13.0526V11.1579C24 11.0741 23.9667 10.9938 23.9075 10.9346C23.8483 10.8754 23.768 10.8421 23.6842 10.8421ZM19.8947 4.52632H19.2632C19.1794 4.52632 19.0991 4.55959 19.0399 4.61881C18.9806 4.67803 18.9474 4.75835 18.9474 4.84211V19.3684C18.9474 19.4522 18.9806 19.5325 19.0399 19.5917C19.0991 19.6509 19.1794 19.6842 19.2632 19.6842H19.8947C19.9785 19.6842 20.0588 19.6509 20.118 19.5917C20.1773 19.5325 20.2105 19.4522 20.2105 19.3684V4.84211C20.2105 4.75835 20.1773 4.67803 20.118 4.61881C20.0588 4.55959 19.9785 4.52632 19.8947 4.52632ZM12.3158 2H11.6842C11.6005 2 11.5201 2.03327 11.4609 2.09249C11.4017 2.15171 11.3684 2.23204 11.3684 2.31579V21.8947C11.3684 21.9785 11.4017 22.0588 11.4609 22.118C11.5201 22.1773 11.6005 22.2105 11.6842 22.2105H12.3158C12.3995 22.2105 12.4799 22.1773 12.5391 22.118C12.5983 22.0588 12.6316 21.9785 12.6316 21.8947V2.31579C12.6316 2.23204 12.5983 2.15171 12.5391 2.09249C12.4799 2.03327 12.3995 2 12.3158 2V2Z" fill="white"/>
</svg>
